<svg width="40" height="40" viewBox="0 0 40 40" fill="none" xmlns="http://www.w3.org/2000/svg">
<path d="M32.2082 15.7803C32.2082 15.7803 31.3032 27.0053 30.7782 31.7337C30.5282 33.992 29.1332 35.3153 26.8482 35.357C22.4999 35.4353 18.1465 35.4403 13.7999 35.3487C11.6015 35.3037 10.2299 33.9637 9.98485 31.7453C9.45652 26.9753 8.55652 15.7803 8.55652 15.7803" stroke="#9E98AF" stroke-width="3.5" stroke-linecap="round" stroke-linejoin="round"/>
<path d="M34.5137 10.3995H6.25037" stroke="#9E98AF" stroke-width="3.5" stroke-linecap="round" stroke-linejoin="round"/>
<path d="M29.0677 10.3995C27.7594 10.3995 26.6327 9.4745 26.376 8.19284L25.971 6.16617C25.721 5.23117 24.8744 4.5845 23.9094 4.5845H16.8544C15.8894 4.5845 15.0427 5.23117 14.7927 6.16617L14.3877 8.19284C14.131 9.4745 13.0044 10.3995 11.696 10.3995" stroke="#9E98AF" stroke-width="3.5" stroke-linecap="round" stroke-linejoin="round"/>
</svg>
